<?xml version="1.0" encoding="UTF-8"?>
<svg width="130.751305px" height="40px" viewBox="0 0 130.751305 40" version="1.1" xmlns="http://www.w3.org/2000/svg" xmlns:xlink="http://www.w3.org/1999/xlink">
    <title>Brand Logo/DStv_Stream@2x</title>
    <defs>
        <polygon id="path-1" points="0 0 64.5704287 0 64.5704287 40 0 40"></polygon>
        <polygon id="path-3" points="0 0 13.3880551 0 13.3880551 8.76712067 0 8.76712067"></polygon>
    </defs>
    <g id="Symbols" stroke="none" stroke-width="1" fill="none" fill-rule="evenodd">
        <g id="Desktop-/-Main-Nav-/-Home" transform="translate(-72, -24)">
            <g id="Brand-Logo/DStv_Stream" transform="translate(72, 24)">
                <g id="DStv" transform="translate(-0, 0)">
                    <g id="Group-3">
                        <mask id="mask-2" fill="white">
                            <use xlink:href="#path-1"></use>
                        </mask>
                        <g id="Clip-2"></g>
                        <path d="M0,4.81037112 C0,2.15373752 2.16189157,0 4.82858319,0 L43.1508131,0 C57.0957389,0 64.5704287,8.95425347 64.5704287,19.9997903 C64.5704287,31.0457931 57.0957389,40.0000466 43.1508131,40.0000466 L1.37966203,40.0000466 C0.617549638,40.0000466 0,39.3848262 0,38.6255883 L0,4.81037112 Z" id="Fill-1" fill="#00FFEB" mask="url(#mask-2)"></path>
                    </g>
                    <path d="M46.0331325,23.5522221 L39.6330726,23.5522221 C38.742304,23.5522221 38.5299044,23.2991428 38.5299044,22.6140109 L38.5299044,19.0778918 C38.5299044,18.9590424 38.6244082,18.8634968 38.7404327,18.8555735 L42.4569587,18.8555735 C42.5743867,18.8634968 42.7156745,18.9338743 42.7895934,19.0228948 L46.1267006,23.3830365 C46.1926661,23.4762517 46.1528997,23.5522221 46.0331325,23.5522221 M12.7729382,23.5279861 L11.3048543,23.5279861 C11.1799409,23.5279861 11.0784194,23.4273137 11.0784194,23.3033375 L11.0784194,16.6939127 C11.0784194,16.5699365 11.1799409,16.468798 11.3039186,16.468798 L12.7729382,16.468798 C16.4038494,16.468798 18.3299493,17.9555806 18.3299493,19.9955956 C18.3299493,22.044466 16.3856036,23.5279861 12.7729382,23.5279861 M55.8021128,17.9182945 L54.7377753,17.9182945 C54.5501712,17.9182945 54.377538,18.0940052 54.3751988,18.0977338 L50.3316522,23.3718506 C50.255862,23.4697266 50.1360948,23.4673962 50.0640474,23.3667238 L46.3302113,18.098666 C46.3283399,18.0940052 46.1893912,17.9136338 45.9283362,17.9136338 L38.7563392,17.9136338 C38.6314258,17.9136338 38.5299044,17.8129613 38.5308401,17.6889851 L38.5359863,15.948191 C38.5359863,15.6983742 38.3324756,15.4970293 38.0835844,15.4970293 L27.0991541,15.4970293 C25.3976178,15.5543567 24.6701256,15.7240084 23.8916388,16.1765683 C23.1739712,16.5955706 22.8160731,17.1268974 22.8160731,17.7658877 C22.8160731,18.4435623 23.3709321,19.1114493 24.4815858,19.7709469 C24.7669686,19.9419968 25.7948145,20.4351053 27.5627842,21.2488741 C28.6734379,21.7601596 29.2727417,22.1810263 29.2292326,22.5963001 C29.1618635,23.2646531 28.5522672,23.4939626 27.0991541,23.4939626 L20.4572207,23.4939626 C20.2967513,23.4939626 20.1652881,23.465998 20.1652881,23.3410896 C20.1652881,23.2800337 20.2022475,23.2241045 20.2714879,23.1798273 L20.2700844,23.1788951 C21.7573498,22.2886898 22.2481146,21.0857475 22.2481146,19.9955956 C22.2481146,17.9555806 20.5255254,15.4970293 13.6683852,15.4970293 L7.70622415,15.4970293 C7.45686509,15.4970293 7.25475794,15.6983742 7.25475794,15.948191 L7.25475794,24.0532539 C7.25475794,24.3012063 7.45686509,24.5030173 7.70669199,24.5030173 L13.6683852,24.5030173 C13.8957557,24.5030173 14.1165765,24.5002208 14.3308475,24.4946279 L29.2423321,24.4946279 C30.6042162,24.4946279 31.6680858,24.2699792 32.4362801,23.8234783 C33.1455265,23.4077385 33.5001497,22.8815386 33.5001497,22.2388197 C33.5001497,21.5639416 32.9452907,20.8974528 31.834637,20.2388873 C31.5506578,20.0683034 30.5232797,19.5714664 28.7525029,18.7539689 C27.6423171,18.2431496 27.0874581,17.8297401 27.0874581,17.5142066 C27.0874581,16.8369981 27.8065292,16.5088805 29.2423321,16.5088805 L34.2833149,16.5088805 C34.4082284,16.5088805 34.509282,16.6090869 34.5097498,16.7330631 L34.5064749,22.6140109 C34.5064749,23.4762517 35.0795797,24.4946279 36.8152684,24.4946279 L50.6708367,24.4946279 C50.998793,24.4946279 51.1648764,24.2830294 51.1648764,24.2830294 L55.9120553,18.067905 C55.9120553,18.067905 56.0173195,17.9182945 55.8021128,17.9182945" id="Fill-4" fill="#111111"></path>
                </g>
                <g id="stream" transform="translate(75, 12.8)">
                    <g id="Group-8" transform="translate(42.3633, 2.6647)">
                        <mask id="mask-4" fill="white">
                            <use xlink:href="#path-3"></use>
                        </mask>
                        <g id="Clip-7"></g>
                        <path d="M7.73761626,8.76712067 L5.64122237,8.76712067 C5.64122237,8.71305585 5.64122237,8.66132141 5.64122237,8.60912089 C5.64122237,7.1344562 5.6473043,5.65932543 5.63654397,4.18419467 C5.63373692,3.8486199 5.59724535,3.50838437 5.53268335,3.17886859 C5.40589853,2.52729424 4.9853098,2.09897033 4.29430919,2.02533031 C3.85079626,1.97825663 3.41570447,2.00622119 3.01008664,2.20943036 C2.50622228,2.46204359 2.26715572,2.90854447 2.17265191,3.43521043 C2.11978592,3.73023658 2.09966877,4.03505033 2.09826525,4.33566939 C2.0907798,5.75207457 2.09499036,7.16801368 2.09499036,8.58441885 L2.09499036,8.76479029 L0,8.76479029 L0,0.167551095 L2.09405468,0.167551095 L2.09405468,0.856877603 C2.33733181,0.695615283 2.56236316,0.521302833 2.80985085,0.388005076 C3.50833692,0.0123477634 4.26015682,-0.0636226361 5.03583659,0.0459052405 C5.65151487,0.132129314 6.20543818,0.361904816 6.65690439,0.795355562 C6.82813406,0.959880415 6.96848625,1.15563236 7.12240582,1.33646988 C7.29082845,1.17613971 7.45971892,0.995768272 7.64779086,0.839166713 C8.37621872,0.233733897 9.23049572,-0.00396489904 10.1657092,0.00256016595 C10.7603346,0.00675485059 11.3217434,0.142849063 11.8415143,0.431350151 C12.3584782,0.71845301 12.7093587,1.16308958 12.966671,1.68043402 C13.2988379,2.34925318 13.3881954,3.07120501 13.3877276,3.80900343 C13.3872598,5.4281517 13.3881954,7.04729997 13.3881954,8.66691432 C13.3881954,8.69720926 13.3853884,8.72797028 13.383517,8.76525637 L11.2918016,8.76525637 C11.2918016,8.70699686 11.2918016,8.65433026 11.2918016,8.60119759 C11.2918016,7.13072759 11.2978835,5.66025759 11.2871232,4.19025366 C11.2843161,3.85001813 11.2496959,3.50418968 11.181859,3.17141137 C11.0415068,2.48488132 10.6471172,2.13112958 9.94956678,2.02812677 C9.55424144,1.96986726 9.16125531,2.00342474 8.78791848,2.14930655 C8.20686042,2.37721775 7.93457717,2.85214926 7.82416678,3.42915144 C7.76849374,3.71951683 7.74323035,4.01920374 7.74135898,4.31516205 C7.73293785,5.74042267 7.73761626,7.1656833 7.73761626,8.59094392 C7.73761626,8.64500874 7.73761626,8.69860749 7.73761626,8.76712067" id="Fill-6" fill="#00FFEB" mask="url(#mask-4)"></path>
                    </g>
                    <path d="M37.8765181,7.01309324 C37.82412,5.64376175 36.6180268,4.51026474 35.1564927,4.64729111 C33.9508674,4.76054759 32.786412,5.92573777 32.9576417,7.41252043 C33.0979939,8.63130936 34.1571851,9.66879469 35.4849168,9.61845848 C36.946451,9.56252935 37.9485656,8.32416523 37.8765181,7.01309324 L37.8765181,7.01309324 Z M39.9850759,11.4333587 L37.8942961,11.4333587 L37.8942961,10.6475544 C36.820134,11.5107273 35.6266725,11.7689335 34.3270112,11.4916182 C33.2430245,11.2595123 32.3583379,10.6806458 31.694472,9.79743169 C30.4495481,8.14286164 30.4794899,5.79057571 31.9358778,4.16536845 C32.3068754,3.75102682 32.742435,3.41964674 33.2369426,3.16097452 C33.7281752,2.9041666 34.2470105,2.74523466 34.7962554,2.68837338 C35.3506466,2.6315121 35.8998915,2.67019642 36.4346333,2.83192481 C36.9614219,2.99132283 37.4442334,3.23880922 37.8868106,3.61260223 L37.8868106,2.83285696 L39.9850759,2.83285696 L39.9850759,11.4333587 Z" id="Fill-9" fill="#00FFEB"></path>
                    <path d="M27.5323278,6.26685885 C27.4298707,5.7457858 27.2113891,5.30674214 26.7777008,4.99307294 C26.3828433,4.70783439 25.9323128,4.59364575 25.453244,4.57500271 C24.4735857,4.53725055 23.6997773,4.89892558 23.1931059,5.75650555 C23.101877,5.91170888 23.0452683,6.08648741 22.9662032,6.26685885 L27.5323278,6.26685885 Z M29.6118794,7.82029039 L22.9371971,7.82029039 C23.0508823,8.2952219 23.2459719,8.706301 23.583285,9.0451383 C24.1021203,9.56621135 24.7388514,9.76336153 25.4644722,9.76802229 C26.2574621,9.77268305 26.8970002,9.44922626 27.4579411,8.92535675 C27.5136142,8.87362231 27.5730299,8.82608255 27.6357206,8.77201772 C28.1147894,9.15186972 28.5887119,9.52752704 29.0654415,9.90644688 C28.2846155,10.8591064 27.3344312,11.5097486 26.0740685,11.6299962 C25.1828321,11.714822 24.311245,11.6458428 23.4822314,11.2846338 C22.5507607,10.8791476 21.8387073,10.2322341 21.372738,9.32525002 C20.9362427,8.47559334 20.7636095,7.57233792 20.8712128,6.62760172 C21.0022082,5.47732598 21.4999906,4.50415915 22.3739169,3.73140502 C22.890413,3.27511655 23.4808279,2.95632052 24.1549862,2.79645642 C24.7201377,2.66269259 25.2904355,2.63053334 25.8658794,2.69997868 C26.5667047,2.78433845 27.2226173,2.99547091 27.8088216,3.40002494 C28.3622771,3.78174124 28.802983,4.26319782 29.1112899,4.86024126 C29.5725808,5.75137871 29.7110616,6.70263997 29.6301252,7.69305162 C29.6273182,7.72893948 29.6198327,7.76436126 29.6118794,7.82029039 L29.6118794,7.82029039 Z" id="Fill-11" fill="#00FFEB"></path>
                    <path d="M6.74860116,3.71527879 C6.36403615,4.23588576 5.9995883,4.72946032 5.62578363,5.23515286 C5.54344368,5.18574879 5.46391077,5.13727688 5.38437787,5.0902032 C4.69337725,4.68145448 3.94717144,4.51087064 3.14809963,4.59429826 C2.91230795,4.61900029 2.67791979,4.68098841 2.54973146,4.91169606 C2.37616258,5.22443311 2.47815184,5.57399016 2.82716096,5.75855628 C3.10880102,5.90723455 3.40915471,6.0270161 3.71137976,6.12908676 C4.30226248,6.32949947 4.90203417,6.51173521 5.44660067,6.81934542 C6.2943279,7.2989377 6.71632015,8.03021105 6.69433164,9.0108351 C6.67936074,9.68711148 6.47631791,10.2902139 5.99350637,10.7735348 C5.5574789,11.2107142 5.01338024,11.4600649 4.40752662,11.5705249 C3.60050153,11.7178049 2.79581563,11.6982297 2.00048655,11.4936223 C1.37966203,11.3342243 0.827142242,11.0280123 0.300353688,10.6723963 C0.199767951,10.6043492 0.103860621,10.529777 0,10.4538066 C0.371933305,9.91875129 0.738720362,9.3906871 1.09194004,8.88266418 C1.51346445,9.08633943 1.91159683,9.29980227 2.32657148,9.47411472 C2.85663492,9.69736516 3.40821902,9.83252722 3.99208414,9.70715275 C4.22647229,9.65681654 4.45056796,9.58317652 4.58764526,9.36878153 C4.79443083,9.04485866 4.69758781,8.66407451 4.32050826,8.46599218 C4.01921889,8.30799239 3.69079477,8.19846451 3.36845257,8.08287765 C2.86692741,7.90390444 2.35136703,7.75988693 1.85873084,7.56040637 C1.28281902,7.32736834 0.839306099,6.92840722 0.585268634,6.35047289 C0.445384284,6.03214294 0.407489193,5.69050918 0.412167599,5.34561288 C0.421992253,4.61666991 0.657316092,3.97395101 1.18597601,3.45847087 C1.48445833,3.16810548 1.84469562,2.96955708 2.24236016,2.84371654 C2.89827273,2.63584661 3.56822052,2.6302537 4.24284672,2.71181701 C4.85758931,2.7859231 5.45174692,2.93739783 5.99771694,3.23568651 C6.25362576,3.37550933 6.49128881,3.54935571 6.74860116,3.71527879" id="Fill-13" fill="#00FFEB"></path>
                    <path d="M13.3521717,9.41706701 L13.3521717,9.54477185 C13.3521717,10.0770307 13.3503004,10.6092896 13.3540431,11.1415485 C13.3549788,11.2361619 13.3301832,11.2785748 13.2324045,11.3112002 C12.6359077,11.5088164 12.0258435,11.5913119 11.4003406,11.5442382 C10.4534311,11.4729286 9.74184554,10.9812183 9.3867545,10.0956738 C9.19727904,9.62353871 9.14534873,9.12949807 9.14675225,8.62566984 C9.15002713,7.42132927 9.14768793,6.21698871 9.14768793,5.01264814 L9.14768793,4.83786961 L7.77925407,4.83786961 L7.77925407,2.82302276 L9.14347737,2.82302276 L9.14347737,0 L11.246421,0 L11.246421,2.81463339 L13.5781387,2.81463339 L13.5781387,4.83087847 L11.2590527,4.83087847 C11.25531,4.87608785 11.2501637,4.9063828 11.2501637,4.93621166 C11.2496959,6.06411575 11.2478245,7.19155377 11.2525029,8.31899178 C11.2529708,8.47559334 11.2735558,8.63405921 11.3053689,8.78786431 C11.3975335,9.22690797 11.6922731,9.47113183 12.1460786,9.48464804 C12.344443,9.49024095 12.5442109,9.47998728 12.7430432,9.46880145 C12.940472,9.45761562 13.1374329,9.43571005 13.3521717,9.41706701" id="Fill-15" fill="#00FFEB"></path>
                    <path d="M15.1354399,2.82642511 L17.2210734,2.82642511 L17.2210734,3.67561572 C18.111842,2.7429975 19.2224956,2.60177645 20.4080038,2.67821292 L20.4080038,4.6711542 C20.3513951,4.6711542 20.2947864,4.6711542 20.2381777,4.6711542 C19.749752,4.67022205 19.2641335,4.66975597 18.7813219,4.77648739 C17.9041207,4.97037504 17.3207235,5.6177547 17.2491439,6.51401899 C17.2355765,6.68460283 17.2276232,6.85565275 17.2276232,7.02670266 C17.2257518,8.43798101 17.2266875,9.84925935 17.2266875,11.2605377 C17.2266875,11.3141364 17.2266875,11.3672691 17.2266875,11.4287912 L15.1354399,11.4287912 L15.1354399,2.82642511 Z" id="Fill-17" fill="#00FFEB"></path>
                </g>
            </g>
        </g>
    </g>
</svg>