<?xml version="1.0" encoding="UTF-8"?>
<svg width="85px" height="32px" viewBox="0 0 85 32" version="1.1" xmlns="http://www.w3.org/2000/svg" xmlns:xlink="http://www.w3.org/1999/xlink">
    <!-- Generator: Sketch 53.1 (72631) - https://sketchapp.com -->
    <title>logo_device_samsung</title>
    <desc>Created with Sketch.</desc>
    <g id="logo_device_samsung" stroke="none" stroke-width="1" fill="none" fill-rule="evenodd">
        <g id="Samsung_Logo" transform="translate(0.000000, 9.000000)" fill="#FFFFFF" fill-rule="nonzero">
            <g id="Group" transform="translate(1.301518, 0.515364)">
                <polygon id="Path" points="68.6981125 9.69752521 68.5369217 0.388754372 71.4715431 0.388754372 71.4715431 12.1224991 67.2521359 12.1224991 64.3222554 2.49371707 64.2582531 2.49371707 64.4218144 12.1224991 61.5037862 12.1224991 61.5037862 0.388754372 65.9080887 0.388754372 68.6341103 9.69752521"></polygon>
                <polygon id="Path" points="15.3392045 1.48864479 13.7154439 12.2457627 10.5129612 12.2457627 12.7103716 0.388754372 17.9846306 0.388754372 20.1749296 12.2457627 16.9842992 12.2457627 15.4055772 1.48864479"></polygon>
                <polygon id="Path" points="29.1660597 9.4533685 30.631 0.388754372 35.4667251 0.388754372 35.722734 12.2457627 32.7596672 12.2457627 32.6814422 1.58583338 32.6198104 1.58583338 30.6381113 12.2457627 27.6300058 12.2457627 25.6459363 1.58583338 25.581934 1.58583338 25.50845 12.2457627 22.5382718 12.2457627 22.8013921 0.388754372 27.6394877 0.388754372 29.1020575 9.4533685"></polygon>
                <path d="M5.52078617,8.90105284 C5.63693839,9.18787771 5.60138159,9.55766846 5.54686116,9.78049109 C5.44730211,10.1739864 5.17944087,10.5769635 4.39245031,10.5769635 C3.64812792,10.5769635 3.19774175,10.1502818 3.19774175,9.50077757 L3.19774175,8.35347809 L0.0165931744,8.35347809 L0.0142227209,9.27084359 C0.0142227209,11.9138992 2.09548088,12.712742 4.32607761,12.712742 C6.47133802,12.712742 8.23732587,11.9802719 8.51703938,10.0033137 C8.66163704,8.97927781 8.55259618,8.30843947 8.50518711,8.05480095 C8.00502142,5.57293615 3.50353025,4.83098421 3.16929631,3.44426892 C3.11240543,3.20722357 3.1289986,2.95358504 3.15744404,2.8184692 C3.24040992,2.44156709 3.49878935,2.02436728 4.24074129,2.02436728 C4.93291371,2.02436728 5.34300216,2.45341936 5.34300216,3.10055316 C5.34300216,3.31863488 5.34300216,3.83302329 5.34300216,3.83302329 L8.29895766,3.83302329 L8.29895766,3.00099411 C8.29895766,0.417199814 5.98065415,0.0142227209 4.30237308,0.0142227209 C2.19266948,0.0142227209 0.46934979,0.711136046 0.154079477,2.64068518 C0.0687431511,3.17403722 0.0568908837,3.64812792 0.180154465,4.24311174 C0.699283779,6.66334475 4.90920917,7.36499898 5.52078617,8.90105284 Z" id="Path"></path>
                <path d="M44.0762121,8.87971876 C44.1923644,9.16417318 44.1544371,9.52448211 44.1022871,9.74730474 C44.0050985,10.1408 43.7396077,10.5366657 42.9573581,10.5366657 C42.224888,10.5366657 41.7768722,10.1099841 41.7768722,9.47470259 L41.7745018,8.33688491 L38.6265396,8.33688491 L38.6217987,9.24239814 C38.6217987,11.8593788 40.6840932,12.6487398 42.8909854,12.6487398 C45.0125413,12.6487398 46.7619359,11.9257515 47.039279,9.96775691 C47.1838767,8.95083237 47.0819472,8.28947584 47.0297972,8.04057823 C46.5320019,5.58241796 42.0779198,4.84757738 41.7460564,3.47271436 C41.6891655,3.23566901 41.7057586,2.98677139 41.7342041,2.8587669 C41.8195404,2.47712389 42.0731789,2.07177635 42.8080195,2.07177635 C43.495451,2.07177635 43.8960577,2.48897616 43.8960577,3.13373951 C43.8960577,3.34945078 43.8960577,3.85909828 43.8960577,3.85909828 L46.8306791,3.85909828 L46.8306791,3.03418046 C46.8306791,0.478831604 44.5313392,0.0782249651 42.8672809,0.0782249651 C40.7812818,0.0782249651 39.0721848,0.765656476 38.7640259,2.68335335 C38.6786895,3.20959402 38.6692077,3.6742029 38.7924713,4.26681628 C39.3021188,6.66334475 43.4717465,7.36025808 44.0762121,8.87971876 Z" id="Path"></path>
                <path d="M54.0344872,10.4726635 C54.8570346,10.4726635 55.1130436,9.90375467 55.1699344,9.61218889 C55.193639,9.4841844 55.2007503,9.31351175 55.1983799,9.15943227 L55.1983799,0.384013465 L58.1970035,0.384013465 L58.1970035,8.88920057 C58.2041149,9.1072823 58.1827808,9.555298 58.1709286,9.66670932 C57.9599582,11.8807129 56.2105635,12.5989603 54.0321168,12.5989603 C51.8512996,12.5989603 50.0995344,11.8807129 49.8909345,9.66670932 C49.8814527,9.555298 49.8601186,9.10491184 49.8648595,8.88920057 L49.8648595,0.384013465 L52.8611128,0.384013465 L52.8611128,9.15706182 C52.8611128,9.3111413 52.8658537,9.4841844 52.8895582,9.60981843 C52.9559309,9.90138421 53.2048285,10.4726635 54.0344872,10.4726635 Z" id="Path"></path>
                <path d="M78.7701694,10.3470295 C79.6282735,10.3470295 79.9293211,9.80419562 79.9838415,9.48892531 C80.0051756,9.35380946 80.012287,9.18787771 80.0099165,9.03853914 L80.0099165,7.31758991 L78.7938739,7.31758991 L78.7938739,5.58715887 L82.9990584,5.58715887 L82.9990584,8.7706779 C82.9966879,8.99350053 82.991947,9.15706182 82.9563902,9.55292755 C82.7596426,11.7100402 80.8869843,12.4804376 78.7867625,12.4804376 C76.6817998,12.4804376 74.8138825,11.7100402 74.6123939,9.55292755 C74.5792076,9.15706182 74.5744667,8.99350053 74.5697258,8.7706779 L74.5720962,3.77850286 C74.5720962,3.5675325 74.5981712,3.1953713 74.6218758,2.99625321 C74.8849961,0.779879197 76.6817998,0.0663726976 78.7867625,0.0663726976 C80.8893548,0.0663726976 82.7311971,0.77513829 82.9492789,2.99625321 C82.9872061,3.37315531 82.9753538,3.77850286 82.9753538,3.77850286 L82.9753538,4.17436859 L79.986212,4.17436859 L79.986212,3.51064161 C79.9885825,3.51301207 79.9814711,3.22855765 79.9482847,3.06025545 C79.8985052,2.79713511 79.6709417,2.19503993 78.7654285,2.19503993 C77.9002129,2.19503993 77.6489449,2.76394877 77.5849426,3.06025545 C77.5493858,3.21670538 77.5351631,3.42767574 77.5351631,3.61968247 L77.5351631,9.04328005 C77.5327926,9.19261862 77.5422745,9.35855037 77.565979,9.49366621 C77.6133881,9.80419562 77.9120652,10.3470295 78.7701694,10.3470295 Z" id="Path"></path>
            </g>
        </g>
    </g>
</svg>