<?xml version="1.0" encoding="UTF-8"?>
<svg width="85px" height="32px" viewBox="0 0 85 32" version="1.1" xmlns="http://www.w3.org/2000/svg" xmlns:xlink="http://www.w3.org/1999/xlink">
    <!-- Generator: Sketch 53.1 (72631) - https://sketchapp.com -->
    <title>logo_device_apple</title>
    <desc>Created with Sketch.</desc>
    <g id="logo_device_apple" stroke="none" stroke-width="1" fill="none" fill-rule="evenodd">
        <g id="Apple_logo" transform="translate(31.000000, 1.000000)" fill="#FFFFFF" fill-rule="nonzero">
            <path d="M5.18356911e-06,16.847213 C0.138767833,14.3398801 0.839887908,11.7237486 3.21366771,9.89892329 C5.08428208,8.46074113 7.14279582,8.07912993 9.3965158,8.91891947 C12.4594163,10.0600813 11.4904911,10.0477734 14.5118969,8.90525166 C17.6833944,7.70567853 20.8082354,8.873088 22.341194,10.725657 C22.6586052,11.1089003 22.7865752,11.3094298 22.2622267,11.6977049 C18.4766207,14.5023301 18.8463863,20.2188151 22.9512804,22.5422102 C23.4027618,22.7974111 23.5230228,22.966933 23.3176943,23.4998423 C22.4638012,25.7169548 21.2851231,27.714498 19.6358586,29.4106689 C18.52683,30.5509467 17.212808,30.9111382 15.6973456,30.3489893 C15.4152619,30.2444065 15.1256033,30.1586596 14.8524353,30.0345612 C13.1451184,29.2601188 11.4412873,29.2990143 9.74436092,30.0568648 C9.17201523,30.3125417 8.57707877,30.4942354 7.97228809,30.6260858 C7.02917134,30.8315112 6.24264854,30.4018246 5.54782977,29.8360036 C4.15457233,28.7007578 3.18370302,27.2103522 2.30614657,25.6587475 C0.93400518,23.2329456 -0.00254215015,19.7531569 5.18356911e-06,16.847213 L5.18356911e-06,16.847213 Z" id="Shape"></path>
            <path d="M16.523178,0.901494257 C16.4820353,3.54953005 14.6097894,6.27074786 12.4090349,6.88268307 C11.122218,7.24032288 10.8589047,6.97504671 11.0980387,5.56165361 C11.5654197,2.79811114 13.5469786,0.65602519 16.1363101,0.091557533 C16.4404496,0.0251168681 16.5500157,0.100800847 16.5243807,0.434602639 C16.5129873,0.589237032 16.5227982,0.745678389 16.523178,0.901494257 L16.523178,0.901494257 Z" id="Shape"></path>
        </g>
    </g>
</svg>