<?xml version="1.0" encoding="UTF-8"?>
<svg width="85px" height="32px" viewBox="0 0 85 32" version="1.1" xmlns="http://www.w3.org/2000/svg" xmlns:xlink="http://www.w3.org/1999/xlink">
    <!-- Generator: Sketch 53.1 (72631) - https://sketchapp.com -->
    <title>logo_device_android</title>
    <desc>Created with Sketch.</desc>
    <g id="logo_device_android" stroke="none" stroke-width="1" fill="none" fill-rule="evenodd">
        <g id="Group-25">
            <rect id="Rectangle" x="0" y="0" width="85" height="32"></rect>
            <g id="Group" transform="translate(29.000000, 1.000000)" fill="#FFFFFF" fill-rule="nonzero">
                <path d="M22.952984,23.174049 C22.952984,23.8593001 22.3553279,24.4153902 21.6130352,24.4153902 L6.09322545,24.4153902 C5.35231748,24.4153902 4.75251505,23.8593641 4.75251505,23.174049 L4.75251505,10.3499738 C8.82068899,10.336206 18.3112485,10.336206 22.952984,10.3499738 L22.952984,23.174049 L22.952984,23.174049 Z" id="Shape"></path>
                <path d="M10.5017698,3.77493213 C10.5783462,3.91395466 10.5201869,4.08774882 10.3677956,4.15985355 L10.3677956,4.15985355 C10.2167892,4.23067755 10.0289485,4.17496609 9.9523721,4.0353032 L7.99060343,0.498969826 C7.91264227,0.358026218 7.97495581,0.187497902 8.12603152,0.114752814 L8.12603152,0.114752814 C8.27703799,0.0425840521 8.46349395,0.0983595553 8.54145511,0.238726837 L10.501839,3.77506021 L10.5017698,3.77493213 Z" id="Shape"></path>
                <path d="M17.6469169,3.92381623 C17.5618243,4.06085363 17.3732913,4.10804829 17.2243619,4.02678639 L17.2243619,4.02678639 C17.0768865,3.94936666 17.0265511,3.77499617 17.1130284,3.63789474 L19.261253,0.197231399 C19.3463456,0.0608343601 19.5363327,0.0123589805 19.6823541,0.092980517 L19.6823541,0.092980517 C19.8312834,0.17097657 19.8815496,0.346115491 19.7965263,0.481808132 L17.6468478,3.92375219 L17.6469169,3.92381623 Z" id="Shape"></path>
                <path d="M27.6911669,19.6966929 C27.6911669,20.6940563 26.8177388,21.5038577 25.7372221,21.5038577 L25.7372221,21.5038577 C24.6567053,21.5038577 23.7811308,20.6946967 23.7811308,19.6966929 L23.7811308,11.787906 C23.7811308,10.7885576 24.6560129,9.98138167 25.7372221,9.98138167 L25.7372221,9.98138167 C26.8170464,9.98138167 27.6911669,10.7886216 27.6911669,11.787906 L27.6911669,19.6966929 L27.6911669,19.6966929 Z" id="Shape"></path>
                <path d="M3.91162848,19.6966929 C3.91162848,20.6940563 3.03536167,21.5038577 1.95837602,21.5038577 L1.95837602,21.5038577 C0.877166901,21.5038577 0.00297720237,20.6946967 0.00297720237,19.6966929 L0.00297720237,11.787906 C0.00297720237,10.7885576 0.876405291,9.98138167 1.95837602,9.98138167 L1.95837602,9.98138167 C3.03536167,9.98138167 3.91162848,10.7886216 3.91162848,11.787906 L3.91162848,19.6966929 L3.91162848,19.6966929 Z" id="Shape"></path>
                <path d="M12.4209575,28.7477571 C12.4209575,29.7451205 11.5460754,30.5549219 10.464174,30.5549219 L10.464174,30.5549219 C9.38580357,30.5549219 8.51237545,29.7457609 8.51237545,28.7477571 L8.51237545,20.8389702 C8.51237545,19.8422472 9.38580357,19.0304607 10.464174,19.0304607 L10.464174,19.0304607 C11.5453831,19.0304607 12.4209575,19.8422472 12.4209575,20.8389702 L12.4209575,28.7477571 L12.4209575,28.7477571 Z" id="Shape"></path>
                <path d="M19.1996318,28.7477571 C19.1996318,29.7451205 18.3247498,30.5549219 17.2435406,30.5549219 L17.2435406,30.5549219 C16.1651703,30.5549219 15.2895958,29.7457609 15.2895958,28.7477571 L15.2895958,20.8389702 C15.2895958,19.8422472 16.1644779,19.0304607 17.2435406,19.0304607 L17.2435406,19.0304607 C18.3240574,19.0304607 19.1996318,19.8422472 19.1996318,20.8389702 L19.1996318,28.7477571 L19.1996318,28.7477571 Z" id="Shape"></path>
                <path d="M13.8531303,1.89950487 C9.10006132,1.89950487 5.18573262,5.2450745 4.66250661,9.54535934 L23.0430617,9.54535934 C22.5212896,5.2450745 18.609038,1.89956891 13.8531303,1.89956891 L13.8531303,1.89950487 Z M9.7062336,6.534891 C9.2822246,6.534891 8.93977709,6.21951287 8.93977709,5.82870013 C8.93977709,5.43923215 9.2822246,5.12378999 9.7062336,5.12378999 C10.1259499,5.12378999 10.4683974,5.43916813 10.4683974,5.82870013 C10.4683974,6.21951287 10.1259499,6.534891 9.7062336,6.534891 L9.7062336,6.534891 Z M18.0162978,6.534891 C17.5937428,6.534891 17.2512953,6.21951287 17.2512953,5.82870013 C17.2512953,5.43923215 17.5937428,5.12378999 18.0162978,5.12378999 C18.4402375,5.12378999 18.7799156,5.43916813 18.7799156,5.82870013 C18.7799156,6.21951287 18.4403068,6.534891 18.0162978,6.534891 L18.0162978,6.534891 Z" id="Shape"></path>
            </g>
        </g>
    </g>
</svg>