<?xml version="1.0" encoding="UTF-8"?>
<svg width="85px" height="32px" viewBox="0 0 85 32" version="1.1" xmlns="http://www.w3.org/2000/svg" xmlns:xlink="http://www.w3.org/1999/xlink">
    <!-- Generator: Sketch 53.1 (72631) - https://sketchapp.com -->
    <title>logo_device_hisence</title>
    <desc>Created with Sketch.</desc>
    <g id="logo_device_hisence" stroke="none" stroke-width="1" fill="none" fill-rule="evenodd">
        <g id="Hisense_logo" transform="translate(6.000000, 9.000000)" fill="#FFFFFF" fill-rule="nonzero">
            <polygon id="polygon3" points="0.787174825 4.45759441 0 12.8342168 4.26182168 12.8342168 4.74117133 7.7476993 8.73166783 7.7476993 8.2512972 12.8342168 12.5123531 12.8342168 13.7232343 0.000255244755 9.46115734 0.000255244755 9.04204545 4.45784965 5.19295455 4.45784965 5.19295455 4.45759441"></polygon>
            <polygon id="polygon5" points="5.10234266 3.92285664 5.47219231 0 1.21011538 0 0.839755245 3.92285664"></polygon>
            <polygon id="polygon7" points="14.6321608 3.04634615 13.7525874 12.8342168 17.5886608 12.8342168 18.4674685 3.04634615"></polygon>
            <polygon id="polygon9" points="18.5634406 2.49859091 18.7990315 0 14.9632133 0 14.7276224 2.49859091"></polygon>
            <path d="M24.0374196,5.24859765 C24.3483077,5.24859765 24.6474545,5.33793331 24.8641573,5.51839135 C25.1002587,5.67868506 25.2523846,5.91299974 25.243451,6.22005919 L28.7308601,6.22005919 C28.8587378,3.82867107 26.2971014,3.27096128 24.1262448,3.27096128 C22.1126189,3.27096128 19.3233042,3.88252772 19.1004755,6.23818156 C18.9498811,7.83805569 20.0502413,8.70052772 22.9316993,9.16711513 C24.686507,9.45426548 25.0007133,9.61711163 24.9504301,10.1556781 C24.8991259,10.6955207 24.0882133,10.876234 23.5846154,10.876234 C23.119049,10.876234 22.7619615,10.7680102 22.5840559,10.6061851 C22.3145175,10.3728914 22.1851084,10.1023319 22.1968497,9.77995779 L18.5351084,9.77995779 C18.3658811,12.1874263 20.8777448,13.068276 23.2415664,13.068276 C25.6829825,13.068276 28.4222692,12.3689053 28.6652622,9.77995779 C28.8094755,8.25078646 27.7530175,7.55039485 26.5099755,7.17288786 C25.2679545,6.776748 23.8235245,6.70578995 23.2078741,6.45156618 C23.0024021,6.36452772 22.7813601,6.23843681 22.8073951,5.96838786 C22.8643147,5.35682142 23.4947692,5.24859765 24.0374196,5.24859765" id="path11"></path>
            <path d="M32.7514755,7.11801023 C33.0215245,6.11030394 33.7321259,5.55361513 34.8740909,5.55361513 C35.8636748,5.55361513 36.4954056,6.25579345 36.4127063,7.11801023 L32.7514755,7.11801023 L32.7514755,7.11801023 Z M34.7416189,3.27121653 C31.5640769,3.27121653 29.2245035,5.48189135 28.9697692,8.19641933 C28.6767483,11.3070872 30.9323462,13.068276 34.1461329,13.068276 C36.4331259,13.068276 38.6333357,12.1333144 39.5986713,10.1196886 L36.0137587,10.1196886 C35.6612657,10.5691746 34.9634266,10.7843459 34.3429266,10.7843459 C33.1422552,10.7843459 32.5549371,10.0308634 32.558,8.97006618 L39.9187483,8.97006618 C40.2623077,5.33869905 38.7321154,3.27121653 34.7416189,3.27121653 L34.7416189,3.27121653 Z" id="path13"></path>
            <path d="M48.1085315,3.27121653 C46.5788497,3.27121653 45.5052902,3.75592632 44.7005035,4.69139835 L44.6619615,4.69139835 L44.7724825,3.50553121 L41.0732203,3.50553121 L40.1933916,12.8342165 L44.0297203,12.8342165 L44.4942657,7.90952422 C44.6341399,6.4163424 45.5341329,6.11030394 46.1931748,6.11030394 C47.3162517,6.11030394 47.3805734,6.86582842 47.2805175,7.944748 L46.818014,12.8342165 L50.6543427,12.8342165 L51.2562098,6.435741 C51.4586189,4.29551373 49.9077517,3.27121653 48.1085315,3.27121653" id="path15"></path>
            <path d="M57.0068741,5.24859765 C57.315465,5.24859765 57.6179301,5.33793331 57.8336119,5.51839135 C58.0697133,5.67868506 58.2226049,5.91299974 58.2121399,6.22005919 L61.7003147,6.22005919 C61.8279371,3.82867107 59.2637483,3.27096128 57.0954441,3.27096128 C55.0818182,3.27096128 52.2912273,3.88252772 52.0696748,6.23818156 C51.9193357,7.83805569 53.0194406,8.70052772 55.9006434,9.16711513 C57.656472,9.45426548 57.9699126,9.61711163 57.9191189,10.1556781 C57.8678147,10.6955207 57.0571573,10.876234 56.5533042,10.876234 C56.0882483,10.876234 55.7309056,10.7680102 55.5514685,10.6061851 C55.2837168,10.3728914 55.1540524,10.1023319 55.165028,9.77995779 L51.5032867,9.77995779 C51.3350804,12.1874263 53.8484755,13.068276 56.2105105,13.068276 C58.6521818,13.068276 61.3907028,12.3689053 61.6352273,9.77995779 C61.7784196,8.25078646 60.7217063,7.55039485 59.4791748,7.17288786 C58.2371538,6.776748 56.7914476,6.70578995 56.1770734,6.45156618 C55.9713462,6.36452772 55.7497937,6.23843681 55.7758287,5.96838786 C55.8327483,5.35682142 56.463458,5.24859765 57.0068741,5.24859765" id="path17"></path>
            <path d="M65.7209301,7.11801023 C65.9889371,6.11030394 66.7020909,5.55361513 67.8435455,5.55361513 C68.8321084,5.55361513 69.4638392,6.25579345 69.3813951,7.11801023 L65.7209301,7.11801023 L65.7209301,7.11801023 Z M67.7105629,3.27121653 C64.5335315,3.27121653 62.1947238,5.48189135 61.9397343,8.19641933 C61.6462028,11.3070872 63.901035,13.068276 67.1168636,13.068276 C69.4030909,13.068276 71.6020245,12.1333144 72.5660839,10.1196886 L68.983979,10.1196886 C68.6299545,10.5691746 67.9339021,10.7843459 67.3131469,10.7843459 C66.1114545,10.7843459 65.5236259,10.0308634 65.5282203,8.97006618 L72.8874371,8.97006618 C73.2299755,5.33869905 71.7020804,3.27121653 67.7105629,3.27121653 L67.7105629,3.27121653 Z" id="path19"></path>
        </g>
    </g>
</svg>