<?xml version="1.0" encoding="UTF-8"?>
<svg width="36px" height="32px" viewBox="0 0 36 32" version="1.1" xmlns="http://www.w3.org/2000/svg" xmlns:xlink="http://www.w3.org/1999/xlink">
    <title>DStv_Stream_Brand_Logo@1.5x</title>
    <g id="Web" stroke="none" stroke-width="1" fill="none" fill-rule="evenodd">
        <g id="DS_DVS_Rebrand_LoggedOut_WEB_1" transform="translate(-307, -2361)">
            <g id="Watch-on-any-screen" transform="translate(0, 1724)">
                <g id="Group-3" transform="translate(260, 621)">
                    <g id="DStv_Stream_Brand_Logo" transform="translate(22, 16)">
                        <g id="logo_device_dstvnow">
                            <rect id="Rectangle" x="0" y="0" width="85" height="32"></rect>
                        </g>
                        <g id="Brand-Logo/DStv_Stream/Verticle" transform="translate(25, 0)" fill-rule="nonzero">
                            <path d="M29.619514,31.8602193 L28.38343,31.8602193 L28.38343,31.7684922 C28.38343,30.9045513 28.38343,30.0416771 28.38343,29.1788028 C28.38077,28.9811267 28.3601401,28.7840842 28.321788,28.5900431 C28.2728745,28.2212576 27.9660118,27.9382772 27.5896542,27.9148893 C27.3321737,27.8764074 27.0689039,27.9135011 26.8326474,28.0215487 C26.5352519,28.1687386 26.3935835,28.430054 26.3373487,28.7382996 C26.3074233,28.91273 26.2925902,29.0893542 26.2930097,29.2662635 C26.2930097,30.0950068 26.2930097,30.92375 26.2930097,31.7524933 L26.2930097,31.8591527 L25.0482742,31.8591527 L25.0482742,26.8269638 L26.2865211,26.8269638 L26.2865211,27.2312028 C26.4303524,27.1362759 26.5633693,27.0338829 26.7093635,26.9560216 C27.1141462,26.7493727 27.5764598,26.6793103 28.0254739,26.7565686 C28.3848354,26.7966648 28.7213686,26.9504602 28.9847097,27.1949386 C29.0852834,27.290932 29.1685542,27.4082573 29.259395,27.5149167 C29.3588873,27.4210564 29.4583796,27.3154637 29.5697678,27.2237366 C29.988804,26.8865405 30.5185459,26.7123837 31.0589083,26.7341701 C31.4053796,26.7330154 31.7463899,26.8193008 32.0495058,26.9848196 C32.3418121,27.1554604 32.5739632,27.4104858 32.7145904,27.7154363 C32.8942971,28.1060649 32.9794494,28.532555 32.9633212,28.9612177 L32.9633212,31.8047564 C32.9633212,31.8228885 32.9633212,31.8410206 32.9633212,31.8623525 L31.7239929,31.8623525 L31.7239929,31.766359 C31.7239929,30.9056179 31.7239929,30.0448769 31.7239929,29.1852024 C31.7221305,28.9849579 31.7011297,28.7853326 31.6612695,28.5889765 C31.5779987,28.1868707 31.3454895,27.9799515 30.9323801,27.9191557 C30.7010898,27.8828888 30.4641897,27.9075414 30.2456667,27.9906175 C29.9028508,28.1239417 29.7417165,28.4023226 29.6768302,28.737233 C29.6440512,28.908135 29.6273979,29.0816649 29.627084,29.2555975 C29.627084,30.0896738 29.627084,30.9248166 29.627084,31.7588929 L29.619514,31.8602193 Z" id="Path" fill="#FFFFFF"></path>
                            <path d="M23.6424044,31.8612859 L22.4074018,31.8612859 L22.4074018,31.401584 C21.8229087,31.8861071 21.0397313,32.0678314 20.2975157,31.8911505 C19.671997,31.7623199 19.1173564,31.408786 18.741326,30.8992184 C17.9858747,29.9076402 18.0456368,28.5278683 18.8840758,27.603444 C19.1025633,27.3632046 19.3634543,27.1640787 19.6540599,27.0157509 C19.9404535,26.8662222 20.2531996,26.7720933 20.5754453,26.7384365 C20.9005393,26.7022348 21.2296951,26.73089 21.5433326,26.8226974 C21.8584495,26.91474 22.1508143,27.0701738 22.4019947,27.2791995 L22.4019947,26.823764 L23.6424044,26.823764 L23.6424044,31.8612859 Z M22.3965875,29.2747962 C22.3799416,28.8768689 22.1983802,28.5031326 21.8943691,28.2410012 C21.5903581,27.9788698 21.1905615,27.8513344 20.7884887,27.8882245 C19.9795372,27.9866862 19.4011637,28.7082857 19.4907627,29.5073136 C19.5625313,30.2940281 20.2639325,30.8765829 21.0621754,30.812464 C21.8604184,30.7483452 22.4569995,30.06153 22.3987503,29.2737296 L22.3965875,29.2747962 Z" id="Shape" fill="#FFFFFF"></path>
                            <path d="M17.5074048,29.7472972 L13.5644808,29.7472972 C13.7024651,30.4425122 14.3410105,30.9295544 15.0579471,30.8864193 C15.501919,30.8844625 15.926544,30.7069544 16.2367148,30.393653 C16.2702394,30.3637884 16.3048454,30.3349903 16.3448587,30.3040591 L17.189462,30.9674804 C16.7276878,31.5253089 16.1664213,31.9060828 15.4213103,31.976478 C14.9013347,32.0413426 14.3731953,31.9714986 13.8889123,31.7738252 C13.347608,31.5506177 12.9050002,31.1439694 12.6409324,30.627237 C12.3835636,30.1423757 12.2803036,29.5922771 12.3446183,29.0486784 C12.4103819,28.3926761 12.7280337,27.7863177 13.2324792,27.353861 C13.5311981,27.086805 13.8935356,26.8985836 14.2858001,26.8066985 C14.6166984,26.7282995 14.9591835,26.7091524 15.2969449,26.750169 C15.7082452,26.7908328 16.1028766,26.9315657 16.4454324,27.159741 C16.7700997,27.376527 17.0347618,27.6698181 17.2154165,28.0130159 C17.4758429,28.5257408 17.5823969,29.1011525 17.522545,29.6715691 C17.5193007,29.6929009 17.5149749,29.7142328 17.5074048,29.7472972 Z M16.2778095,28.8374928 C16.2345163,28.5402925 16.074002,28.2719689 15.8311755,28.0908773 C15.6011857,27.9333467 15.3282216,27.8481938 15.0482141,27.8466273 C14.4696446,27.8242288 14.0121962,28.0354144 13.7126378,28.53778 C13.6620076,28.6346342 13.6172299,28.734357 13.5785395,28.8364262 L16.2778095,28.8374928 Z" id="Shape" fill="#FFFFFF"></path>
                            <path d="M3.98942594,27.3442617 L3.32542281,28.2338008 L3.18267296,28.1484733 C2.78674567,27.9104688 2.3220589,27.8084559 1.86115534,27.8583598 C1.71886779,27.8565561 1.58550066,27.9265479 1.50752501,28.0439471 C1.45611471,28.129968 1.44468176,28.2336359 1.4761381,28.3285465 C1.50759445,28.4234572 1.57890378,28.5004494 1.67190363,28.5399132 C1.83982495,28.6249506 2.01451931,28.6962949 2.19423834,28.7532319 C2.54815014,28.8557427 2.89141845,28.9910938 3.21944186,29.1574709 C3.70123942,29.4018671 3.99102814,29.9040238 3.95806423,30.4373833 C3.96377444,30.8216847 3.81483864,31.1925567 3.54387335,31.4687794 C3.28787994,31.7168404 2.95968874,31.8798022 2.6051849,31.9348808 C2.13356583,32.0230662 1.64804563,32.007772 1.18309351,31.8900839 C0.821925962,31.7889268 0.481530077,31.6261191 0.177355883,31.4090501 C0.117876776,31.3695862 0.0616419838,31.3258558 0,31.2821255 L0.648862988,30.3616552 C0.8975938,30.4811137 1.13334735,30.6059051 1.37883385,30.7082981 C1.68415817,30.8547199 2.02851152,30.9024915 2.36294271,30.8448221 C2.50333453,30.8299751 2.63109672,30.7580807 2.7154916,30.6464357 C2.77615688,30.5582379 2.79359748,30.4478843 2.76302699,30.3456605 C2.73245649,30.2434367 2.65708649,30.1600818 2.55760161,30.1184718 C2.37543726,30.0306775 2.18714858,29.9558256 1.99417225,29.8944871 C1.69785815,29.7878278 1.39397399,29.7046335 1.10198564,29.5883748 C0.763257535,29.4624601 0.490335801,29.207128 0.344978822,28.8801566 C0.266533106,28.6941987 0.229647614,28.4937494 0.236834991,28.2924635 C0.235334821,27.8800213 0.404444427,27.4848139 0.70509778,27.1981384 C0.881828342,27.0314223 1.09600656,26.9082609 1.33016912,26.8386963 C1.71364902,26.7277463 2.11714737,26.7011671 2.5121812,26.760835 C2.87503323,26.7965139 3.22751736,26.9008076 3.55036198,27.0680139 C3.70176335,27.1448087 3.84235033,27.2472017 3.98942594,27.3442617 Z" id="Path" fill="#FFFFFF"></path>
                            <path d="M7.897744,30.6816333 L7.897744,30.7562948 C7.897744,31.0677402 7.897744,31.3791855 7.897744,31.6906309 C7.9018085,31.7131439 7.89654082,31.7363239 7.88312234,31.7549722 C7.86970386,31.7736205 7.84925759,31.7861764 7.82636907,31.7898241 C7.47883967,31.9064819 7.11104783,31.9529131 6.74493076,31.9263481 C6.21077994,31.9076804 5.74092157,31.5727623 5.55534861,31.0784061 C5.4522418,30.8031995 5.4041338,30.5109076 5.41368019,30.217665 C5.41368019,29.5126466 5.41368019,28.8086948 5.41368019,28.1036764 L5.41368019,27.997017 L4.6036829,27.997017 L4.6036829,26.8216308 L5.40935444,26.8216308 L5.40935444,25.1716104 L6.6530085,25.1716104 L6.6530085,26.8194976 L8.03184235,26.8194976 L8.03184235,27.9991502 L6.66057857,27.9991502 C6.66057857,28.0258151 6.65517138,28.0428806 6.65517138,28.0610126 C6.65517138,28.7212341 6.65517138,29.380389 6.65517138,30.0406105 C6.65920704,30.1322326 6.67187844,30.2232856 6.69302172,30.3125919 C6.72921062,30.5538124 6.94339652,30.7296975 7.19048334,30.7210972 C7.30727868,30.7210972 7.42515546,30.7210972 7.54303223,30.7114979 C7.66090901,30.7018985 7.77446003,30.6922992 7.897744,30.6816333 Z" id="Path" fill="#FFFFFF"></path>
                            <path d="M8.95214635,26.823764 L10.184986,26.823764 L10.184986,27.3207966 C10.7116465,26.7747007 11.3680795,26.692573 12.0688516,26.7373699 L12.0688516,27.9031568 L11.9682778,27.9031568 C11.6784691,27.8925581 11.3883552,27.9133026 11.1031272,27.9650192 C10.5993896,28.0573885 10.2252869,28.4779321 10.1979633,28.9825496 C10.1893118,29.0817428 10.184986,29.1820026 10.184986,29.2822624 C10.184986,30.1078059 10.184986,30.9337049 10.184986,31.7599595 L10.184986,31.8591527 L8.95214635,31.8591527 L8.95214635,26.823764 Z" id="Path" fill="#FFFFFF"></path>
                            <path d="M0.00432499165,2.65475162 C0.00432499165,1.1902373 1.20680471,0.00235357867 2.69169996,0 L24.0598396,0 C31.8332182,0 36,4.94152843 36,11.0381778 C36,17.1348272 31.8332182,22.0784888 24.0598396,22.0784888 L0.773228394,22.0784888 C0.569115225,22.0784888 0.373377763,21.9984454 0.229149419,21.8559968 C0.0849210752,21.7135482 0.00432499165,21.5203853 0.00432499165,21.3190741 L0.00432499165,2.65475162 Z" id="Path" fill="#FFFFFF"></path>
                            <path d="M31.1118988,9.88945643 L30.5192706,9.88945643 C30.4421524,9.8981074 30.3705709,9.93321807 30.3170417,9.98864964 L28.0622428,12.8983171 C28.0463039,12.9238835 28.0180539,12.9394595 27.9876235,12.9394595 C27.9571932,12.9394595 27.9289432,12.9238835 27.9130043,12.8983171 L25.8344799,9.98864964 C25.7795583,9.92156797 25.6969609,9.88240278 25.6095407,9.88199027 L21.6082189,9.88199027 C21.5389366,9.88199027 21.4827721,9.82659677 21.4827721,9.75826541 L21.4827721,8.79833111 C21.4827721,8.66107934 21.369959,8.54981479 21.230797,8.54981479 L15.1109375,8.54981479 C14.1625161,8.58074601 13.7569768,8.67460625 13.32332,8.92418917 C12.9231878,9.15599552 12.7231218,9.44859772 12.7231218,9.80199575 C12.7231218,10.1760146 13.0327736,10.5447005 13.6520773,10.9080534 C13.8114092,11.0026247 14.3838505,11.2746061 15.3694013,11.7239975 C15.9890655,12.0066448 16.3232299,12.2380957 16.2983568,12.4706131 C16.2615879,12.8396545 15.9209348,12.9665791 15.1087747,12.9665791 L11.4091742,12.9665791 C11.3194148,12.9665791 11.245877,12.9505802 11.245877,12.8823182 C11.2479636,12.8440899 11.2706636,12.8098967 11.3053561,12.7927244 L11.3053561,12.7927244 C12.1348193,12.3010247 12.4073418,11.6376034 12.4073418,11.0360446 C12.4073418,9.90972171 11.448106,8.55301457 7.62522154,8.55301457 L4.29979873,8.55301457 C4.23306979,8.55301396 4.16908956,8.57923084 4.12200666,8.62586761 C4.07492376,8.67250438 4.04861742,8.73571854 4.04890271,8.8015309 L4.04890271,13.2748247 C4.04890271,13.4120765 4.16171815,13.523341 4.30088017,13.523341 L7.62414011,13.523341 C7.75066839,13.523341 7.87395236,13.523341 7.99291057,13.5180081 L16.3059269,13.5180081 C17.0650966,13.5180081 17.6584457,13.3946387 18.0859743,13.1479001 C18.4817808,12.9185824 18.679684,12.628469 18.679684,12.2732933 C18.679684,11.9014076 18.3700321,11.5334328 17.7507285,11.1693688 C17.5928385,11.0755086 17.0203971,10.8024606 16.0334044,10.3502249 C15.4133798,10.0657999 15.103728,9.8379044 15.1044489,9.66653835 C15.1044489,9.29216398 15.5056625,9.11084306 16.3059269,9.11084306 L19.1176665,9.11084306 C19.1848286,9.11370086 19.2377686,9.16826618 19.2377061,9.23456792 L19.2377061,12.4791458 C19.2377061,12.9548466 19.5567305,13.5169415 20.5246177,13.5169415 L28.2482502,13.5169415 C28.352884,13.5192947 28.453437,13.4769033 28.5240169,13.4006828 L31.1702965,9.97051755 C31.1702965,9.97051755 31.2286942,9.88838984 31.1086545,9.88838984 M7.12559704,12.9847158 L6.30694824,12.9847158 C6.27349069,12.9849957 6.24130427,12.9720861 6.21754401,12.9488523 C6.19378375,12.9256185 6.18041996,12.8939859 6.18041996,12.8609864 L6.18041996,9.21323605 C6.18041996,9.14490469 6.23658442,9.08951118 6.3058668,9.08951118 L7.12559704,9.08951118 C9.15004957,9.08951118 10.2239178,9.90972171 10.2239178,11.0360446 C10.2239178,12.1623675 9.1424795,12.9847158 7.12559704,12.9847158 M25.6668569,12.998577 L22.0981105,12.998577 C21.6017303,12.998577 21.4838533,12.8588532 21.4838533,12.4802124 L21.4838533,10.5294126 C21.4837315,10.4644821 21.5349366,10.4107065 21.6006489,10.4067544 L23.6716032,10.4067544 C23.7426501,10.4136393 23.808563,10.4463335 23.8565292,10.4984814 L25.718766,12.9057833 C25.7555349,12.9569798 25.7328247,12.9996435 25.6657755,12.9996435" id="path835" fill="#000000"></path>
                        </g>
                    </g>
                </g>
            </g>
        </g>
    </g>
</svg>