<?xml version="1.0" encoding="UTF-8"?>
<svg width="85px" height="32px" viewBox="0 0 85 32" version="1.1" xmlns="http://www.w3.org/2000/svg" xmlns:xlink="http://www.w3.org/1999/xlink">
    <!-- Generator: Sketch 53.1 (72631) - https://sketchapp.com -->
    <title>logo_device_xbox</title>
    <desc>Created with Sketch.</desc>
    <g id="logo_device_xbox" stroke="none" stroke-width="1" fill="none" fill-rule="evenodd">
        <g id="Xbox_Logo" transform="translate(27.000000, 1.000000)" fill="#FFFFFF" fill-rule="nonzero">
            <path d="M13.589502,30.0236456 C11.278633,29.8024435 8.93902394,28.9730062 6.92920745,27.6624395 C5.24504134,26.5642249 4.86471862,26.1127669 4.86471862,25.2118106 C4.86471862,23.4020779 6.85564422,20.23237 10.2619966,16.618926 C12.1965703,14.5667384 14.8913029,12.161273 15.1827305,12.2264114 C15.7491779,12.3530213 20.2785315,16.7686535 21.9741167,18.847281 C24.6553957,22.1342745 25.888061,24.8256037 25.26183,26.0254875 C24.7857932,26.9375935 21.83198,28.7202816 19.6619096,29.405156 C17.8733703,29.9696183 15.5244423,30.208862 13.589502,30.0236456 L13.589502,30.0236456 Z M2.59005897,23.3302071 C1.19055398,21.1843549 0.483478065,19.0717901 0.142097442,16.0163128 C0.0293727342,15.0073825 0.0697674274,14.4302864 0.398065839,12.3594316 C0.807243093,9.77840268 2.27789942,6.79248908 4.04503082,4.95489646 C4.79766564,4.17225224 4.86488378,4.15318394 5.78229581,4.46206807 C6.89638308,4.8371708 8.08613916,5.65840794 9.93128285,7.32593323 L11.0078414,8.29886035 L10.4199636,9.0206771 C7.69101577,12.3713745 4.81022015,17.1208732 3.72453597,20.0592688 C3.13431457,21.6566977 2.89625587,23.2602117 3.15021094,23.9277982 C3.32166863,24.3785171 3.16418017,24.2105024 2.59005897,23.3302071 Z M27.1556957,23.6951734 C27.2939499,23.0206322 27.1190868,21.7817834 26.7092586,20.5323001 C25.821696,17.8263071 22.8550383,12.7922659 20.1308655,9.36960635 L19.2733015,8.29215937 L20.2010815,7.44072116 C21.412488,6.32899455 22.2535675,5.66331007 23.1610749,5.09799684 C23.8772055,4.65189698 24.9005699,4.25698877 25.3404603,4.25698877 C25.6116644,4.25698877 26.5664427,5.24729662 27.3372104,6.32804255 C28.5309682,8.00189343 29.4091771,10.0309678 29.8541101,12.1432564 C30.141594,13.5080742 30.1655518,16.4294999 29.9004239,17.7909592 C29.6828425,18.9082565 29.2234215,20.3575587 28.7752393,21.3404895 C28.4394241,22.076982 27.6042041,23.5073497 27.2381882,23.9727862 C27.0500124,24.212075 27.0498577,24.2115532 27.1556949,23.6951734 L27.1556957,23.6951734 Z M13.8369232,3.74600938 C12.5799843,3.10806661 10.6409256,2.42327486 9.56978182,2.23903879 C9.19426886,2.17445083 8.55369649,2.13842968 8.14628768,2.15899157 C7.2625163,2.20359546 7.3019894,2.1574053 8.71973858,1.48795507 C9.89842908,0.931386194 10.8816196,0.604098626 12.2163129,0.324003953 C13.717746,0.00891769304 16.5399032,0.0052199192 18.017431,0.316402754 C19.6132851,0.652506586 21.4924564,1.35142876 22.5513486,2.00270826 L22.8660637,2.19627528 L22.1439986,2.15983269 C20.709127,2.08741468 18.6179929,2.66678425 16.3728814,3.75877859 C15.6956986,4.0881523 15.106564,4.35121401 15.0636935,4.34335989 C15.0208239,4.33550585 14.4687776,4.066698 13.8369232,3.74600914 L13.8369232,3.74600938 Z" id="path4148"></path>
        </g>
    </g>
</svg>