<?xml version="1.0" encoding="UTF-8"?>
<svg width="85px" height="32px" viewBox="0 0 85 32" version="1.1" xmlns="http://www.w3.org/2000/svg" xmlns:xlink="http://www.w3.org/1999/xlink">
    <!-- Generator: Sketch 53.1 (72631) - https://sketchapp.com -->
    <title>logo_device_LG</title>
    <desc>Created with Sketch.</desc>
    <g id="logo_device_LG" stroke="none" stroke-width="1" fill="none" fill-rule="evenodd">
        <g id="LG_logo_0" transform="translate(13.000000, 1.000000)" fill="#FFFFFF" fill-rule="nonzero">
            <g id="Group-21" transform="translate(28.734795, 23.427193)">
                <path d="M6.53199191,1.59717412 L6.53199191,2.11122388 L5.47221763,2.11122388 L5.47221763,4.622203 L4.781442,4.622203 L4.781442,2.11122388 L4.33098887,2.11122388 L4.33098887,1.59717412 L4.77376415,1.59717412 L4.77376415,1.23263407 C4.77376415,0.323755886 5.28379279,0.0455348308 5.9950042,0.0455348308 C6.24109951,0.0455348308 6.50382055,0.0815058129 6.69986551,0.15907357 L6.54798262,0.645392155 C6.3941947,0.588622786 6.23469169,0.560266514 6.06935812,0.560266514 C5.63235566,0.560266514 5.46448205,0.760806159 5.46448205,1.23263407 L5.46448205,1.59717412 L6.53199191,1.59717412 Z" id="Fill-3"></path>
                <path d="M6.7437909,3.09180535 C6.7437909,2.04035025 7.23078599,1.52561857 8.21176128,1.52561857 C9.28758399,1.52561857 9.51249306,2.15519599 9.51249306,3.00662288 L9.51249306,3.27660414 L7.45633006,3.27660414 C7.47041574,3.92061542 7.72413118,4.19309703 8.33483779,4.19309703 C8.79291106,4.19309703 9.08380345,4.04989502 9.32285592,3.95022187 L9.46827326,4.3860788 C9.23568634,4.52234801 8.71284204,4.69328121 8.22590469,4.69328121 C7.12889571,4.69328121 6.7437909,4.16468393 6.7437909,3.09180535 M7.4627379,2.80608324 L8.80064663,2.80608324 C8.80064663,2.2339571 8.59559607,1.99113877 8.20471844,1.99113877 C7.67292627,1.99113877 7.48450142,2.26930299 7.4627379,2.80608324" id="Fill-5"></path>
                <path d="M9.5880881,1.51110516 C9.87898057,1.02416148 9.92960819,0.602852065 9.92960819,0.0888022965 L10.576799,0.0888022965 C10.5690634,0.858910904 10.3871619,1.3098836 10.0244556,1.78296168 L9.5880881,1.51110516 Z" id="Fill-7"></path>
                <path d="M12.4491843,2.955843 C12.8272463,3.08512259 13.1322243,3.27753609 13.1322243,3.77141257 C13.1322243,4.39331845 12.6381864,4.69353125 11.810364,4.69353125 C11.3451902,4.69353125 10.9530426,4.60778051 10.6480645,4.47912601 L10.8588301,3.98524954 C11.0978249,4.10066354 11.432302,4.19334707 11.8161369,4.19334707 C12.1813254,4.19334707 12.462635,4.12151875 12.462635,3.83573981 C12.462635,3.66418153 12.3332083,3.5500177 12.0711223,3.45665227 C11.8314926,3.37783432 11.5565909,3.29895957 11.3451902,3.21951654 C10.9754988,3.08512259 10.6909565,2.88395786 10.6909565,2.42730255 C10.6909565,1.78266618 11.271529,1.52598225 11.9769099,1.52598225 C12.4716406,1.52598225 12.8195684,1.61929087 13.104053,1.7265219 L12.8919595,2.21977328 C12.6458643,2.09805157 12.3332083,2.01923363 11.9769099,2.01923363 C11.5406002,2.01923363 11.352868,2.15544603 11.352868,2.35541741 C11.352868,2.51936098 11.468209,2.61272643 11.7296023,2.71177448 C11.888528,2.77678365 12.2313758,2.87765015 12.4491843,2.955843" id="Fill-9"></path>
                <path d="M18.9180157,4.40063767 C18.525233,4.57850366 17.957534,4.69329258 17.34117,4.69329258 C15.9160917,4.68635977 15.2843143,3.90681802 15.2843143,2.44786226 C15.2843143,0.924636082 16.0910081,0.202431958 17.4064606,0.202431958 C18.0306179,0.202431958 18.5829035,0.395470546 18.9238463,0.803539459 L18.4957917,1.18257019 C18.2497541,0.924636082 17.9069064,0.746770089 17.4135034,0.746770089 C16.4607572,0.746770089 16.0038963,1.37560878 16.0038963,2.51281461 C16.0038963,3.56364462 16.4607572,4.13639586 17.3770192,4.13639586 C17.7044535,4.13639586 17.994711,4.09218507 18.2343407,4.0284829 L18.2343407,2.8616138 L17.2162462,2.8616138 L17.2162462,2.32676564 L18.9180157,2.32676564 L18.9180157,4.40063767 Z" id="Fill-11"></path>
                <polygon id="Fill-1" points="2.6790849 4.06445389 2.6790849 4.62140744 0.0410793865 4.62140744 0.0410793865 0.273692008 0.745940697 0.273692008 0.745940697 4.06445389"></polygon>
                <path d="M3.11818868,0.924903166 L3.96201398,0.924903166 L3.96201398,0.317487957 L3.11818868,0.317487957 L3.11818868,0.924903166 Z M3.12700111,4.62224278 L3.96229373,4.62224278 L3.96229373,1.59727072 L3.12700111,1.59727072 L3.12700111,4.62224278 Z" id="Fill-2"></path>
                <polygon id="Fill-14" points="2.6790849 4.06445389 2.6790849 4.62140744 0.0410793865 4.62140744 0.0410793865 0.273692008 0.745940697 0.273692008 0.745940697 4.06445389"></polygon>
                <path d="M19.435705,3.0994087 C19.435705,2.04795359 19.9310129,1.52577768 20.998465,1.52577768 C22.0890662,1.52577768 22.4235433,2.13313606 22.4235433,3.12713988 C22.4235433,4.17859499 21.9282354,4.69332667 20.853625,4.69332667 C19.7643515,4.69332667 19.435705,4.09221917 19.435705,3.0994087 M21.718047,3.07042733 C21.718047,2.48381052 21.5872927,2.00510664 20.998465,2.00510664 C20.345559,2.00510664 20.1412012,2.40499258 20.1412012,3.14924527 C20.1412012,3.7421698 20.2795757,4.21456597 20.853625,4.21456597 C21.521367,4.21456597 21.718047,3.82098773 21.718047,3.07042733" id="Fill-15"></path>
                <path d="M22.8513093,3.0994087 C22.8513093,2.04795359 23.3453472,1.52577768 24.4127993,1.52577768 C25.5033428,1.52577768 25.837185,2.13313606 25.837185,3.12713988 C25.837185,4.17859499 25.3444748,4.69332667 24.268652,4.69332667 C23.1780509,4.69332667 22.8513093,4.09221917 22.8513093,3.0994087 M25.1329587,3.07042733 C25.1329587,2.48381052 25.0023197,2.00510664 24.4127993,2.00510664 C23.7598357,2.00510664 23.5573829,2.40499258 23.5573829,3.14924527 C23.5573829,3.7421698 23.6951224,4.21456597 24.268652,4.21456597 C24.9369136,4.21456597 25.1329587,3.82098773 25.1329587,3.07042733" id="Fill-17"></path>
                <path d="M26.2777954,3.17715262 C26.2777954,2.21144825 26.6827588,1.52584019 27.7509036,1.52584019 C27.9847028,1.52584019 28.1718576,1.56118608 28.3679026,1.65449469 L28.3679026,0.130018336 L29.0579854,0.0455177829 L29.0579854,3.82872178 L29.117561,4.62150404 L28.5209978,4.62150404 L28.46275,4.42221457 C28.1936211,4.61582142 27.896321,4.69282091 27.5548009,4.69282091 C26.6757159,4.69282091 26.2777954,4.12131986 26.2777954,3.17715262 M28.3679026,3.97817467 L28.3679026,2.15536079 C28.1936211,2.05375555 28.0276526,2.01909157 27.860414,2.01909157 C27.3298918,2.01909157 26.9877368,2.31174648 26.9877368,3.14180672 C26.9877368,3.77195241 27.206238,4.20081971 27.7726671,4.20081971 C28.005254,4.20081971 28.1865206,4.12893457 28.3679026,3.97817467" id="Fill-19"></path>
            </g>
            <path d="M11.338443,6.95463711 L12.290381,6.95463711 L12.290381,16.1195092 L14.6121513,16.1195092 L14.6121513,17.033729 L11.338443,17.033729 L11.338443,6.95463711 Z M8.08794123,6.95463711 C8.85416762,6.95463711 9.4809804,7.57165595 9.4809804,8.32591004 C9.4809804,9.08010731 8.85416762,9.69718297 8.08794123,9.69718297 C7.29856584,9.69718297 6.67169532,9.08010731 6.67169532,8.32591004 C6.67169532,7.57165595 7.29856584,6.95463711 8.08794123,6.95463711 Z M11.826073,2.36069377 C11.9189577,2.36069377 12.1510828,2.38359472 12.2671742,2.38359472 L12.2671742,3.27491362 L11.826073,3.27491362 C9.45783139,3.27491362 7.2288879,4.1662325 5.5571947,5.81180548 C3.86223706,7.45737847 2.93356351,9.67439567 2.93356351,11.9827326 C2.93356351,14.3368146 3.86223706,16.5080299 5.5571947,18.1536028 C7.2288879,19.7991758 9.45783139,20.7134525 11.826073,20.7134525 C16.4929361,20.7134525 20.3471016,17.1252192 20.6489046,12.5769641 L20.6489046,12.4397857 L14.6121513,12.4397857 L14.6121513,11.5713109 L21.206155,11.5713109 L21.6008426,11.5713109 L21.6008426,11.9827326 C21.6008426,14.5654264 20.5792267,16.9879839 18.7217641,18.7935795 C16.8875661,20.5991182 14.4264975,21.6048282 11.826073,21.6048282 C9.20244184,21.6048282 6.7412578,20.5991182 4.88379527,18.7935795 C3.0495972,16.9879839 2.02809671,14.5654264 2.02809671,11.9827326 C2.02809671,6.68033706 6.41630577,2.36069377 11.826073,2.36069377 Z M11.8028663,0.509409959 C5.3714831,0.509409959 0.124162979,5.65189657 0.124162979,12.0056335 C0.124162979,18.3365264 5.3714831,23.4788425 11.8028663,23.4788425 C18.2574562,23.4788425 23.4814542,18.3365264 23.4814542,12.0056335 C23.4814542,5.65189657 18.2574562,0.509409959 11.8028663,0.509409959 Z" id="Fill-22"></path>
            <path d="M32.2810963,4.37196037 L28.775205,4.37196037 L28.775205,19.3421398 L39.5483261,19.3421398 L39.5483261,16.4166704 L32.2810963,16.4166704 L32.2810963,4.37196037 Z M47.2567149,13.6283227 L50.1357355,13.6283227 L50.1357355,16.2338037 C49.601692,16.4395146 48.5568693,16.6452253 47.6049313,16.6452253 C44.4241075,16.6452253 43.3792849,15.0681847 43.3792849,11.8456281 C43.3792849,8.78303701 44.3776941,7.00028559 47.5353111,7.00028559 C49.299889,7.00028559 50.2982982,7.52598473 51.134087,8.57732618 L53.316617,6.58892076 C51.9699913,4.71479282 49.6481632,4.14340541 47.4656331,4.14340541 C42.543496,4.14340541 39.9662206,6.79457476 39.9662206,11.8227271 C39.9662206,16.8280352 42.3112554,19.5477937 47.4424265,19.5477937 C49.7874613,19.5477937 52.1092895,18.9535623 53.3630306,18.0850875 L53.3630306,10.8399748 L47.2567149,10.8399748 L47.2567149,13.6283227 Z" id="Fill-24"></path>
        </g>
    </g>
</svg>