<svg width="16px" height="16px" viewBox="0 0 1024 1024" style="display: inline-block; vertical-align: middle;"><path d="M1014.601 969.595l-240.024-240.024c52.805-60.806 89.609-137.614 102.41-224.022 17.602-116.812-12.801-232.023-81.608-328.033-70.407-94.409-172.817-155.215-289.629-172.817-241.624-35.203-465.646 131.213-500.85 371.237-17.602 116.812 12.801 233.623 81.608 328.033s172.817 156.816 289.629 172.817c22.402 3.2 43.204 4.8 64.006 4.8 108.811 0 209.621-40.004 288.029-107.211l240.024 240.024c8.001 6.401 16.002 9.601 24.002 9.601s16.002-3.2 22.402-9.601c12.801-12.801 12.801-32.003 0-44.804zM665.767 743.972c-80.008 60.806-180.818 84.808-280.028 70.407s-187.219-67.207-248.025-148.815c-60.806-81.608-84.808-180.818-68.807-280.028 27.203-187.219 188.819-321.632 371.237-321.632 17.602 0 36.804 1.6 56.006 4.8 99.21 14.401 187.219 67.207 248.025 148.815 60.806 80.008 84.808 180.818 70.407 280.028s-67.207 185.618-148.815 246.424z"></path></svg>